<?xml version="1.0" encoding="UTF-8" standalone="no"?>
<svg width="36px" height="35px" viewBox="0 0 36 35" version="1.1" xmlns="http://www.w3.org/2000/svg" xmlns:xlink="http://www.w3.org/1999/xlink">
    <!-- Generator: sketchtool 39.1 (31720) - http://www.bohemiancoding.com/sketch -->
    <title>09C12CFB-A479-4CAD-9DEF-4FE78E013922</title>
    <desc>Created with sketchtool.</desc>
    <defs>
        <path d="M17.5,35 C27.1649831,35 35,27.1649831 35,17.5 C35,7.83501688 27.1649831,0 17.5,0 C7.83501688,0 0,7.83501688 0,17.5 C0,27.1649831 7.83501688,35 17.5,35 Z" id="path-1"></path>
        <mask id="mask-2" maskContentUnits="userSpaceOnUse" maskUnits="objectBoundingBox" x="0" y="0" width="35" height="35" fill="white">
            <use xlink:href="#path-1"></use>
        </mask>
    </defs>
    <g id="Page-1" stroke="none" stroke-width="1" fill="none" fill-rule="evenodd">
        <g id="Tablet-Portrait-Copy" transform="translate(-232.000000, -1014.000000)">
            <g id="Group" transform="translate(46.000000, 1014.000000)">
                <g id="instagram" transform="translate(186.666667, 0.000000)">
                    <rect id="Rectangle" x="0" y="0" width="35" height="35"></rect>
                    <use id="Oval" stroke="#5D5D5D" mask="url(#mask-2)" stroke-width="4" xlink:href="#path-1"></use>
                    <path d="M22.3799228,9.54545455 L12.6200772,9.54545455 C10.9251529,9.54545455 9.54545455,10.9242175 9.54545455,12.6200772 L9.54545455,22.3799228 C9.54545455,24.0757825 10.9251529,25.4545455 12.6200772,25.4545455 L22.3799228,25.4545455 C24.0748471,25.4545455 25.4545455,24.0757825 25.4545455,22.3799228 L25.4545455,12.6200772 C25.4545455,10.9242175 24.0748471,9.54545455 22.3799228,9.54545455 L22.3799228,9.54545455 Z M23.2619944,11.3797518 L23.6137005,11.377881 L23.6137005,14.0746066 L20.9253934,14.0830251 L20.9160395,11.3862995 L23.2619944,11.3797518 L23.2619944,11.3797518 Z M15.2298116,15.8668113 C15.7386631,15.1615283 16.5655467,14.6994462 17.5,14.6994462 C18.4344533,14.6994462 19.2613369,15.1615283 19.7701884,15.8668113 C20.1022513,16.3270226 20.3005538,16.8901266 20.3005538,17.5 C20.3005538,19.0433913 19.0443267,20.2996184 17.5,20.2996184 C15.9566087,20.2996184 14.7003816,19.0433913 14.7003816,17.5 C14.7003816,16.8901266 14.898684,16.3270226 15.2298116,15.8668113 L15.2298116,15.8668113 Z M23.9046064,22.3799228 C23.9046064,23.2208373 23.2208373,23.9046064 22.3799228,23.9046064 L12.6200772,23.9046064 C11.7791627,23.9046064 11.0953936,23.2208373 11.0953936,22.3799228 L11.0953936,15.8668113 L13.4712809,15.8668113 C13.2654954,16.3719212 13.1504426,16.9228652 13.1504426,17.5 C13.1504426,19.8983366 15.1016634,21.8504928 17.5,21.8504928 C19.899272,21.8504928 21.8504928,19.8983366 21.8504928,17.5 C21.8504928,16.9228652 21.7335692,16.3719212 21.5296545,15.8668113 L23.9046064,15.8668113 L23.9046064,22.3799228 L23.9046064,22.3799228 Z" id="Shape" fill="#5D5D5D"></path>
                </g>
            </g>
        </g>
    </g>
</svg>