<?xml version="1.0" encoding="UTF-8" standalone="no"?>
<svg width="35px" height="35px" viewBox="0 0 35 35" version="1.1" xmlns="http://www.w3.org/2000/svg" xmlns:xlink="http://www.w3.org/1999/xlink">
    <!-- Generator: sketchtool 39.1 (31720) - http://www.bohemiancoding.com/sketch -->
    <title>8B151ADA-D2DF-4C98-A49F-7620F7B83480</title>
    <desc>Created with sketchtool.</desc>
    <defs>
        <circle id="path-1" cx="17.5" cy="17.5" r="17.5"></circle>
        <mask id="mask-2" maskContentUnits="userSpaceOnUse" maskUnits="objectBoundingBox" x="0" y="0" width="35" height="35" fill="white">
            <use xlink:href="#path-1"></use>
        </mask>
    </defs>
    <g id="Page-1" stroke="none" stroke-width="1" fill="none" fill-rule="evenodd">
        <g id="Tablet-Portrait-Copy" transform="translate(-186.000000, -1014.000000)">
            <g id="Group" transform="translate(46.000000, 1014.000000)">
                <g id="pinterest" transform="translate(140.000000, 0.000000)">
                    <rect id="Rectangle" x="0" y="0" width="35" height="35"></rect>
                    <use id="Oval" stroke="#5D5D5D" mask="url(#mask-2)" stroke-width="4" xlink:href="#path-1"></use>
                    <path d="M7.95454545,17.5 C7.95454545,21.4084281 10.3061126,24.7668477 13.6701445,26.242891 C13.6420829,25.576146 13.6645322,24.7758274 13.8351471,24.0507141 C14.0192316,23.2762123 15.0631254,18.8492047 15.0631254,18.8492047 C15.0631254,18.8492047 14.7578145,18.2397054 14.7578145,17.3394873 C14.7578145,15.9240571 15.5783375,14.8678162 16.5986595,14.8678162 C17.4674485,14.8678162 17.8872509,15.5199692 17.8872509,16.3012058 C17.8872509,17.1744847 17.3305076,18.4799132 17.0442786,19.6888095 C16.8051933,20.7012743 17.5516335,21.5262871 18.5506286,21.5262871 C20.358922,21.5262871 21.5767981,19.2050265 21.5767981,16.4516164 C21.5767981,14.3604614 20.1681027,12.7946207 17.6055118,12.7946207 C14.7095484,12.7946207 12.9057449,14.9542461 12.9057449,17.365304 C12.9057449,18.1970517 13.151565,18.7841016 13.5343261,19.237578 C13.7116758,19.4463568 13.7363701,19.5305418 13.6723895,19.7707496 C13.6274908,19.9447319 13.521979,20.3690242 13.4782028,20.5362717 C13.4142222,20.777602 13.218913,20.8640319 13.0000321,20.7753571 C11.6665419,20.2298384 11.045818,18.7695095 11.045818,17.1284636 C11.045818,14.4165847 13.3311597,11.1647995 17.8670465,11.1647995 C21.511695,11.1647995 23.9104058,13.8025956 23.9104058,16.6334559 C23.9104058,20.3780039 21.8282306,23.1751903 18.7594073,23.1751903 C17.7289832,23.1751903 16.7602946,22.6184469 16.4280446,21.9853759 C16.4280446,21.9853759 15.8735461,24.1842876 15.7556872,24.6097024 C15.5547657,25.3449179 15.1574126,26.0801334 14.7959784,26.6537138 C15.6535427,26.9073912 16.5604956,27.0454545 17.5011225,27.0454545 C22.7722248,27.0454545 27.0454545,22.7711024 27.0454545,17.5 C27.0454545,12.2277752 22.7722248,7.95454545 17.5011225,7.95454545 C12.2288976,7.95454545 7.95454545,12.2277752 7.95454545,17.5 Z" id="Shape" fill="#5D5D5D"></path>
                </g>
            </g>
        </g>
    </g>
</svg>