<?xml version="1.0" encoding="UTF-8" standalone="no"?>
<svg width="35px" height="35px" viewBox="0 0 35 35" version="1.1" xmlns="http://www.w3.org/2000/svg" xmlns:xlink="http://www.w3.org/1999/xlink">
    <!-- Generator: sketchtool 39.1 (31720) - http://www.bohemiancoding.com/sketch -->
    <title>704FE96B-62F9-4A3C-AE3A-95D755BBC687</title>
    <desc>Created with sketchtool.</desc>
    <defs>
        <ellipse id="path-1" cx="17.5" cy="17.5076319" rx="17.5" ry="17.1111111"></ellipse>
        <mask id="mask-2" maskContentUnits="userSpaceOnUse" maskUnits="objectBoundingBox" x="0" y="0" width="35" height="34.2222222" fill="white">
            <use xlink:href="#path-1"></use>
        </mask>
    </defs>
    <g id="Page-1" stroke="none" stroke-width="1" fill="none" fill-rule="evenodd">
        <g id="Tablet-Portrait-Copy" transform="translate(-326.000000, -1014.000000)">
            <g id="Group" transform="translate(46.000000, 1014.000000)">
                <g id="youtube" transform="translate(280.000000, 0.000000)">
                    <rect id="Rectangle" x="0" y="0" width="35" height="34.2222222"></rect>
                    <use id="Oval" stroke="#5D5D5D" mask="url(#mask-2)" stroke-width="4" xlink:href="#path-1"></use>
                    <path d="M12.6680205,21.7911427 L12.6812366,18.6401821 L13.2835137,18.6340074 L13.8851615,18.6265977 L13.8782387,18.1412646 L13.8706867,17.6553139 L12.1324533,17.6485217 L10.3954785,17.6417296 L10.3954785,18.1344724 L10.3954785,18.6265977 L10.9832808,18.6340074 L11.5710832,18.6401821 L11.5780059,21.7652088 C11.5811526,23.4836339 11.5899633,24.9050549 11.596886,24.9229616 C11.6063261,24.948278 11.7284178,24.9544527 12.1318239,24.9488954 L12.6548044,24.9421033 L12.6680205,21.7911427 Z M22.6940149,21.5694702 C22.6694707,21.506488 22.703455,20.7784883 22.7361806,20.6729005 C22.8123306,20.4246767 22.9740706,20.3036522 23.2289528,20.3036522 C23.4410399,20.3036522 23.5757184,20.3839235 23.6663432,20.5642254 C23.723613,20.6784578 23.7292771,20.7272381 23.7380878,21.1495891 L23.7468985,21.6096058 L23.2276941,21.6096058 C22.781493,21.6096058 22.707231,21.6040486 22.6940149,21.5694702 L22.6940149,21.5694702 Z M23.6631965,24.9643322 C24.1717021,24.8241661 24.5235025,24.4833214 24.6562929,24.0023106 C24.6783198,23.9201868 24.7041227,23.6861648 24.7129334,23.4830165 L24.7280375,23.1137681 L24.238412,23.1137681 L23.7481572,23.1137681 L23.7361998,23.4447332 C23.7223543,23.8207738 23.682706,23.9498254 23.5429928,24.0702325 C23.3944689,24.1980493 23.1213359,24.2073113 22.9438624,24.0899916 C22.7324046,23.9498254 22.6801695,23.7133336 22.6908682,22.9451982 L22.6984203,22.4005877 L23.7122849,22.394413 L24.7261495,22.3870033 L24.7129334,21.5768798 C24.6965706,20.6729005 24.6776904,20.5358217 24.5228731,20.2147362 C24.2277133,19.6065261 23.4102024,19.2996424 22.7311459,19.542309 C22.2188642,19.7256982 21.9161523,20.0560458 21.79469,20.5673128 C21.7518949,20.7476147 21.7468602,20.9093924 21.7468602,22.2320178 C21.7468602,23.8541173 21.7525243,23.9201868 21.921187,24.2523868 C22.2226403,24.8433077 22.9772173,25.1520438 23.6631965,24.9643322 L23.6631965,24.9643322 Z M19.6486451,24.0405939 C19.7109496,23.9992232 19.7518566,23.9417983 19.7839529,23.8522648 C19.8248599,23.7343276 19.8286359,23.5842819 19.8229719,22.1931171 C19.8173078,20.7432924 19.8141612,20.6580812 19.7663314,20.5629905 C19.6436104,20.3203239 19.3346051,20.29686 19.0514027,20.5092704 L18.9582605,20.5784273 L18.9582605,22.2320178 L18.9582605,23.8856083 L19.0507733,23.9547652 C19.2603431,24.1116032 19.4900517,24.1443292 19.6486451,24.0405939 L19.6486451,24.0405939 Z M20.2622503,24.9742118 C20.4164383,24.9303713 20.6027225,24.7506869 20.6864246,24.5672976 C20.8475353,24.215956 20.8481646,24.2073113 20.8481646,22.2320178 C20.8481646,20.6105358 20.8431299,20.4104749 20.8022229,20.2351128 C20.6694324,19.6738305 20.3799366,19.4286941 19.8928285,19.4645075 C19.6203248,19.4855015 19.4057203,19.5917067 19.1483208,19.8356082 C19.0362985,19.941196 18.9362337,20.0282596 18.9249056,20.0282596 C18.9148362,20.0282596 18.9053961,19.4910588 18.9053961,18.8353033 L18.9053961,17.642347 L18.4296161,17.642347 L17.953836,17.642347 L17.953836,21.2983999 L17.953836,24.9550702 L18.4296161,24.9550702 L18.9053961,24.9550702 L18.9053961,24.7086988 C18.9053961,24.5450686 18.9154655,24.4623274 18.934975,24.4623274 C18.9507085,24.4623274 19.0576961,24.5487735 19.172865,24.6549787 C19.5429162,24.9964408 19.8632496,25.0902966 20.2622503,24.9742118 L20.2622503,24.9742118 Z M15.197962,24.9501304 C15.3880222,24.8809735 15.6114375,24.7290753 15.7996097,24.5413638 C15.8858291,24.4549177 15.9720485,24.3845259 15.9909287,24.3845259 C16.0161022,24.3845259 16.024913,24.4549177 16.024913,24.669798 L16.024913,24.9550702 L16.500693,24.9550702 L16.9764731,24.9550702 L16.9764731,22.2449847 L16.9764731,19.5355168 L16.500693,19.5355168 L16.024913,19.5355168 L16.024913,21.6256601 L16.024913,23.716421 L15.8197486,23.9158645 C15.6573792,24.0745548 15.5894106,24.1227177 15.4887164,24.1498864 C15.318795,24.1961968 15.2105487,24.1640883 15.1406921,24.0461511 C15.0878277,23.9584701 15.086569,23.9177169 15.0790169,21.7460672 L15.0720942,19.5355168 L14.5963142,19.5355168 L14.1217928,19.5355168 L14.1217928,21.8825286 C14.1217928,24.4394809 14.1243102,24.4950534 14.2703167,24.7414248 C14.4301688,25.0106427 14.8039959,25.0952364 15.197962,24.9501304 L15.197962,24.9501304 Z M15.6019974,27.2113135 C14.9839868,27.2008165 14.2526953,27.1841448 13.9764156,27.1742652 C12.1217545,27.1088132 10.8486024,27.0390388 10.5943495,26.9884061 C10.2318505,26.9167793 9.82655635,26.6759652 9.59118368,26.3925454 C9.21483915,25.9387034 9.01345078,25.3879182 8.91590328,24.5401289 C8.6899707,22.5691576 8.69500541,20.2703087 8.92974873,18.3684943 C9.03296028,17.5349069 9.28910112,16.9328715 9.71893943,16.5129904 C9.96438152,16.2727937 10.2003835,16.1394197 10.5144235,16.0603833 C11.195368,15.8893435 16.5233492,15.7534996 19.7644434,15.8238914 C21.636726,15.8646446 23.6594205,15.9498558 24.1968757,16.0097506 C24.8922949,16.0875521 25.3806617,16.4407461 25.7186166,17.1107035 C25.9741281,17.6164132 26.0553128,18.0103605 26.1591537,19.2243108 C26.2403384,20.1850975 26.2604772,20.7840455 26.2453731,21.8936431 C26.2283809,23.2212083 26.1421615,24.3907006 26.0131471,25.0470735 C25.87721,25.7411123 25.5562472,26.3326506 25.1402544,26.6531187 C24.819921,26.900725 24.4781901,27.0112526 23.9401055,27.0408912 C23.7802535,27.0501533 23.5782358,27.0625027 23.4907577,27.0692949 C23.1811231,27.0927589 21.5209276,27.1582109 20.6102746,27.1835273 C19.2571964,27.2205756 16.8896243,27.2335425 15.6019974,27.2113135 Z M13.9322908,15.1673107 C13.9096346,15.1308798 13.9134107,12.9975134 13.9360669,12.6955695 C13.9656458,12.3084144 13.8989359,12.0033832 13.6157335,11.2241333 C13.52385,10.9715871 13.3577046,10.4813142 13.246941,10.1355298 C12.4457929,7.63538491 12.4879586,7.78172582 12.5647379,7.78110835 C13.092753,7.77678604 13.7441186,7.7798734 13.7516706,7.78728307 C13.7567053,7.79222285 13.9278855,8.40228537 14.1324205,9.14386947 C14.3375849,9.8848361 14.5081357,10.5016908 14.5125411,10.5152752 C14.5163171,10.5276246 14.6365208,10.0960116 14.7793807,9.55572342 C15.0783166,8.42204448 15.24635,7.79654515 15.2526434,7.7909879 C15.2658595,7.77863846 15.4143834,7.77616857 15.9008622,7.77863846 L16.4389468,7.78172582 L16.4269894,7.86631951 C16.4175493,7.93485892 16.0500155,9.14510441 15.6654896,10.3744915 C15.6239532,10.5103354 15.5163363,10.8604422 15.4275995,11.153124 C15.3388628,11.4451883 15.2318752,11.7922077 15.1890802,11.9243467 L15.1116715,12.1651609 L15.1116715,13.6668533 C15.1116715,15.0753073 15.1085248,15.1697806 15.0657298,15.1808951 C14.9688116,15.2068289 13.949283,15.1944795 13.9322908,15.1673107 Z M20.8864832,15.2574616 C20.6209023,15.2228832 20.4654556,15.1222352 20.3590974,14.915382 C20.2256776,14.6560437 20.2256776,14.6572786 20.2256776,12.0731575 L20.2256776,9.66192864 L20.7618742,9.66192864 L21.2974414,9.66192864 L21.3087695,11.8848285 C21.3207269,14.2991448 21.3175802,14.2429548 21.4648455,14.2793857 C21.6001533,14.3121117 21.7499359,14.2411024 21.9362201,14.0546258 L22.1149523,13.8761763 L22.121875,11.7687437 L22.1281684,9.66192864 L22.6637356,9.65451897 L23.1993029,9.64834425 L23.1993029,12.4078275 L23.1993029,15.1679281 L23.1262996,15.1827475 C23.0388215,15.2006542 22.2269746,15.1994192 22.1615234,15.1808951 C22.121875,15.170398 22.1155817,15.1345847 22.1155817,14.9184694 L22.1155817,14.6677757 L21.9632817,14.8134991 C21.6133694,15.1475516 21.2357662,15.3031546 20.8864832,15.2574616 L20.8864832,15.2574616 Z M18.187879,14.2034366 C18.3716459,14.0663578 18.3729045,14.0546258 18.3823446,12.5029182 C18.390526,11.296995 18.3861207,11.0919942 18.3489897,10.9277466 C18.2986426,10.7054566 18.2105352,10.6004864 18.0380964,10.5541759 C17.8153105,10.4961336 17.6114047,10.6208629 17.5396601,10.8598247 C17.485537,11.0438314 17.4861663,13.7792332 17.5409188,13.9632399 C17.5824552,14.1015537 17.7152456,14.2528344 17.8134225,14.2738284 C17.9411782,14.3003797 18.0978835,14.2707411 18.1885083,14.2034366 L18.187879,14.2034366 Z M17.7681101,15.2562267 C17.288554,15.1994192 16.8480169,14.9227917 16.6359298,14.5448987 C16.4200666,14.1602135 16.3999278,13.9589176 16.4125146,12.2645739 C16.422584,10.9524455 16.42636,10.8703217 16.4792245,10.6819927 C16.6057215,10.2343254 16.8505343,9.92929409 17.2300255,9.74466991 C17.7511179,9.49212378 18.3131174,9.52484981 18.8046309,9.83729074 C19.1180415,10.0354993 19.3081018,10.3232414 19.4100547,10.7511496 C19.4547377,10.9400961 19.4591431,11.085202 19.4591431,12.4102974 C19.4591431,14.0218998 19.451591,14.1151381 19.2829283,14.4640099 C19.1211882,14.8005322 18.7549131,15.0969188 18.3729045,15.2012716 C18.2042418,15.2463471 17.9115993,15.2735159 17.7681101,15.2562267 L17.7681101,15.2562267 Z" id="Shape" fill="#5D5D5D"></path>
                </g>
            </g>
        </g>
    </g>
</svg>